<?xml version="1.0" standalone="no"?><!DOCTYPE svg PUBLIC "-//W3C//DTD SVG 1.1//EN" "http://www.w3.org/Graphics/SVG/1.1/DTD/svg11.dtd"><svg t="1641457990923" class="icon" viewBox="0 0 1024 1024" version="1.1" xmlns="http://www.w3.org/2000/svg" p-id="1831" xmlns:xlink="http://www.w3.org/1999/xlink" width="200" height="200"><defs><style type="text/css"></style></defs><path d="M861.229614 305.82065v595.448927c0 14.745995-11.959073 26.705068-26.705068 26.705067H217.626899c-11.218245 0-20.31984-9.101595-20.31984-20.31984V102.445861c0-8.219658 6.667448-14.887105 14.887105-14.887105H627.939505c0.84666 0 1.305268 1.023048 0.70555 1.658042-0.352775 0.388053-0.352775 1.023048 0.070555 1.375823l232.196506 214.522479c0.211665 0.176388 0.317498 0.42333 0.317498 0.70555z" fill="#210B02" p-id="1832"></path><path d="M528.527509 399.306025h-469.543529c-2.575258 0-4.65663-2.081373-4.65663-4.65663V205.244497c0-2.575258 2.081373-4.65663 4.65663-4.656631h469.543529c2.575258 0 4.65663 2.081373 4.65663 4.656631v189.404898c0 2.575258-2.081373 4.65663-4.65663 4.65663zM626.59896 289.945775V86.077101l233.148999 217.838564h-219.179109c-7.690495 0-13.96989-6.244118-13.96989-13.96989zM536.923554 764.957316h-43.814655l-14.111-51.293486h-68.544183l-13.864058 51.293486h-43.567713l69.038068-223.765185h47.236573l67.626968 223.765185z m-67.450581-88.123196l-21.413442-77.575223c-1.375823-4.903573-2.363593-11.394633-2.928033-19.508458h-1.093602c-0.493885 6.561615-1.587488 12.84101-3.280808 18.90874l-21.554552 78.139663h50.270437zM595.836979 603.915527c24.094533-4.339133 31.079478-4.93885 44.237986-2.610535 29.421435 5.150515 44.802425 21.942605 44.802425 65.863093v97.789231h-39.08747v-89.110966c0-25.82313-7.831605-38.699418-23.494815-38.699418-7.47883 0-9.348538 1.516933-17.920971 3.52775-6.385228 1.481655-8.04327 2.53998-8.04327 1.940263l-0.070555 122.377648h-39.334412v-153.774624l38.911082-7.302442" fill="#EC411A" p-id="1833"></path><path d="M290.263272 343.320633h-16.580425l-5.36218-19.402626H242.356427l-5.256348 19.402626h-16.50987L246.766114 258.584077h17.885693l25.611465 84.736556z m-25.54091-33.372516l-8.113825-29.386157c-0.529163-1.869708-0.881938-4.339133-1.093603-7.372998h-0.42333c-0.176388 2.469425-0.599718 4.868295-1.234712 7.161333l-8.149103 29.597822h19.014573zM312.59393 282.325835c9.136873-1.658043 11.782685-1.869708 16.756812-0.98777 11.14769 1.940263 16.968478 8.32549 16.968478 24.941192v37.041376h-14.81655v-33.760568c0-9.771868-2.96331-14.67544-8.88993-14.67544-2.8222 0-3.563028 0.56444-6.77328 1.340545-2.39887 0.56444-3.033865 0.952493-3.033865 0.740827l-0.035278 46.354636h-14.887105V285.07748l14.710718-2.751645" fill="#210B02" p-id="1834"></path></svg>