<?xml version="1.0" standalone="no"?><!DOCTYPE svg PUBLIC "-//W3C//DTD SVG 1.1//EN" "http://www.w3.org/Graphics/SVG/1.1/DTD/svg11.dtd"><svg t="1641458027529" class="icon" viewBox="0 0 1024 1024" version="1.1" xmlns="http://www.w3.org/2000/svg" p-id="2280" xmlns:xlink="http://www.w3.org/1999/xlink" width="200" height="200"><defs><style type="text/css"></style></defs><path d="M856.079099 308.854515v598.941399c0 14.81655-12.029628 26.846178-26.846178 26.846178h-620.531229c-11.2888 0-20.425673-9.136873-20.425673-20.425673V104.280291c0-8.254935 6.702725-14.95766 14.95766-14.95766h418.179488c0.84666 0 1.305268 1.023048 0.740828 1.658042-0.352775 0.388053-0.352775 1.023048 0.070555 1.375823l233.572329 215.757191c0.14111 0.211665 0.28222 0.493885 0.28222 0.740828z" fill="#0E241E" p-id="2281"></path><path d="M528.703896 403.221828h-472.365728c-2.575258 0-4.65663-2.081373-4.65663-4.65663V207.996142c0-2.575258 2.081373-4.65663 4.65663-4.656631h472.365728c2.575258 0 4.65663 2.081373 4.65663 4.656631v190.569056c0 2.575258-2.081373 4.65663-4.65663 4.65663zM621.448445 294.39074V89.322631l234.524821 219.108554h-220.449099c-7.796328 0-14.075723-6.279395-14.075722-14.040445zM540.909911 769.261171h-44.096875l-14.216832-52.387088h-68.932236l-13.96989 52.387088h-43.849933l69.426121-228.63348h47.518792l68.120853 228.63348zM473.071278 679.23299l-21.554552-79.268543c-1.375823-5.009405-2.363593-11.676853-2.928033-19.931788h-1.093602c-0.493885 6.702725-1.587488 13.12323-3.316085 19.33207l-21.660385 79.868261H473.071278zM687.593758 769.261171h-39.299136v-4.409688c-17.885693 8.007993-23.918145 7.514108-42.262445 7.090778-31.502808-0.740828-47.13074-21.625108-47.13074-67.485858v-98.459504h39.546077v94.014539c0 24.41203 0.811383 35.55972 23.741758 36.618045 7.90216 0.352775 21.095945-3.66886 25.68202-10.477418 0.388053-0.599718 0-14.25211 0.388053-26.705067v-93.450099H687.55848v163.264272z" fill="#56E2B2" p-id="2282"></path><path d="M295.80184 346.107555h-16.22765l-5.22107-19.296793h-25.399801l-5.150515 19.296793h-16.157095l25.576188-84.207393h17.49764l25.082303 84.207393zM270.825369 312.911427l-7.937437-29.20977c-0.529163-1.83443-0.881938-4.303855-1.093603-7.33772H261.406277c-0.176388 2.469425-0.599718 4.833018-1.234713 7.126055L252.198849 312.911427h18.62652zM349.84697 346.107555h-14.463775v-1.622765c-6.596893 2.96331-8.819375 2.751645-15.557378 2.610535-11.606298-0.28222-17.35653-7.972715-17.35653-24.870638V285.959417h14.569608v34.642505c0 8.995763 0.317498 13.087953 8.74882 13.476005 2.928033 0.14111 7.76105-1.340545 9.45437-3.845247 0.14111-0.211665 0-5.256348 0.14111-9.842423v-34.43084h14.463775v60.148138z" fill="#0E241E" p-id="2283"></path></svg>