<?xml version="1.0" standalone="no"?><!DOCTYPE svg PUBLIC "-//W3C//DTD SVG 1.1//EN" "http://www.w3.org/Graphics/SVG/1.1/DTD/svg11.dtd"><svg t="1641458007957" class="icon" viewBox="0 0 1024 1024" version="1.1" xmlns="http://www.w3.org/2000/svg" p-id="1980" xmlns:xlink="http://www.w3.org/1999/xlink" width="200" height="200"><defs><style type="text/css"></style></defs><path d="M861.229614 307.020085V909.806732c0 14.922383-12.100183 27.022565-27.022565 27.022565H209.689462c-11.359355 0-20.566783-9.207428-20.566783-20.566783V101.140593c0-8.32549 6.738003-15.063493 15.063492-15.063492h420.860579c0.881938 0 1.305268 1.023048 0.740827 1.658042-0.388053 0.388053-0.352775 1.023048 0.070555 1.4111l235.089262 217.168292c0.176388 0.176388 0.28222 0.42333 0.28222 0.70555z" fill="#270215" p-id="1981"></path><path d="M531.808316 401.987115H56.373445c-2.575258 0-4.65663-2.081373-4.65663-4.65663V205.456162c0-2.575258 2.081373-4.65663 4.65663-4.656631h475.434871c2.575258 0 4.65663 2.081373 4.65663 4.656631v191.874323c0 2.575258-2.081373 4.65663-4.65663 4.65663zM625.117305 292.450477V86.077101l236.006476 220.519654h-221.895476c-7.796328 0-14.111-6.314673-14.111-14.146278zM382.972543 778.045268v-248.918042h75.458573c23.14204 0 40.992455 5.150515 53.515968 15.416268 12.523513 10.30103 18.802908 24.517863 18.802907 42.75633 0 13.511283-3.880525 25.329245-11.676852 35.524443-7.76105 10.195198-17.568195 17.180143-29.35088 21.060668v0.634995c14.81655 2.151928 26.775623 8.572433 35.877217 19.296792 9.101595 10.72436 13.652393 24.165088 13.652393 40.322183 0 22.612878-6.843835 40.569125-20.566783 53.904021-13.722948 13.334895-32.490578 20.002343-56.267613 20.002342h-79.44493z m45.261033-209.407241v61.559238h21.554552c10.336308 0 18.48541-2.892755 24.41203-8.678265 5.961898-5.78551 8.925208-13.864058 8.925208-24.270921 0-19.085128-11.888518-28.610053-35.665553-28.610052h-19.226237z m0 101.563923v68.29724h26.881455c11.42991 0 20.390395-3.10442 26.8109-9.31326 6.455783-6.20884 9.666035-14.851828 9.666035-25.858407 0-10.512695-3.210253-18.62652-9.59548-24.412031-6.420505-5.78551-15.5221-8.678265-27.304785-8.678265h-26.458125zM570.401902 617.109312c25.188135-19.47318 65.721983-23.212595 85.018775-23.212595h11.99435l-0.42333 47.518793s-14.322665 0.105833-24.165087 1.658042c-9.948255 1.587488-22.753988 4.550798-30.903091 12.206015 0 0-0.599718 18.873463-0.599717 39.158026v83.607675h-40.674958l-0.246942-160.935956z" fill="#EFAE02" p-id="1982"></path><path d="M249.270817 356.655528V256.537982h30.33865c9.31326 0 16.474593 2.081373 21.519275 6.20884 5.044683 4.127468 7.549385 9.8777 7.549385 17.180143 0 5.432735-1.55221 10.195198-4.691907 14.287387-3.139698 4.09219-7.0555 6.91439-11.817963 8.4666v0.246943c5.961898 0.84666 10.759638 3.457195 14.428498 7.76105 3.66886 4.303855 5.50329 9.701313 5.50329 16.22765 0 9.101595-2.751645 16.333483-8.290213 21.695663-5.50329 5.36218-13.052675 8.04327-22.612877 8.04327h-31.926138z m18.20319-84.207394v24.764806h8.678265c4.162745 0 7.443553-1.164158 9.807145-3.492473 2.39887-2.328315 3.598305-5.573845 3.598305-9.771867 0-7.655218-4.79774-11.500465-14.357942-11.500466h-7.725773z m0 40.851346V340.780652h10.830193c4.586075 0 8.18438-1.234713 10.794915-3.739415 2.610535-2.504703 3.880525-5.961898 3.880525-10.406862 0-4.2333-1.26999-7.514108-3.845248-9.842423-2.575258-2.328315-6.244118-3.492473-10.971302-3.492472h-10.689083zM324.658835 291.921315c10.124643-7.831605 26.422848-9.348538 34.183898-9.348538h4.833017l-0.176387 19.120405s-5.750233 0.035278-9.701313 0.670273c-3.986358 0.634995-9.136873 1.83443-12.41768 4.903572 0 0-0.246943 7.584663-0.246943 15.733765v33.619458h-16.36876l-0.105832-64.698935z" fill="" p-id="1983"></path></svg>