<?xml version="1.0" standalone="no"?><!DOCTYPE svg PUBLIC "-//W3C//DTD SVG 1.1//EN" "http://www.w3.org/Graphics/SVG/1.1/DTD/svg11.dtd"><svg t="1641458972141" class="icon" viewBox="0 0 1024 1024" version="1.1" xmlns="http://www.w3.org/2000/svg" p-id="7660" xmlns:xlink="http://www.w3.org/1999/xlink" width="200" height="200"><defs><style type="text/css"></style></defs><path d="M853.51 282.47L646.55 74.6A36 36 0 0 0 621 64H196a36 36 0 0 0-36 36v59.21h-16.33a36 36 0 0 0-36 36v108a36 36 0 0 0 36 36H160V924a36 36 0 0 0 36 36h632a36 36 0 0 0 36-36V307.87a36 36 0 0 0-10.49-25.4zM816 902a10 10 0 0 1-10 10H218a10 10 0 0 1-10-10V339.21h293.67a36 36 0 0 0 36-36v-108a36 36 0 0 0-36-36H208V122a10 10 0 0 1 10-10h360a10 10 0 0 1 10 10v182a36 36 0 0 0 36 36h182a10 10 0 0 1 10 10zM507 562.81c-3.73-20.37 5.86-41.3 17.5-55.42 12.79-15.56 34.76-27.49 53.51-28.79 3.17 21.26-5.55 42.08-17 56.82-12.34 15.79-33.53 28.02-54.01 27.39z m155.42 172.57c-8.22 18.19-12.17 26.34-22.74 42.44-14.76 22.49-35.58 50.48-61.39 50.72-22.92 0.22-28.79-14.92-59.92-14.75s-37.59 15-60.54 14.81c-25.79-0.25-45.52-25.53-60.28-48-41.32-62.86-45.63-136.6-20.16-175.85 18.1-27.87 46.66-44.19 73.53-44.19 27.33 0 44.52 15 67.13 15 21.92 0 35.28-15 66.9-15 23.89 0 49.21 13 67.25 35.5-59.1 32.36-49.5 116.76 10.22 139.32zM142.33 209.62a123.82 123.82 0 0 0-1.18-19.24c5.92 0.3 9.47 0.45 18.79 0.45h26.79c18.5 0 30.49 3.84 40 13 10.8 10.21 16.43 25.6 16.43 44.84 0 20.13-5.92 36.11-17.47 47.06-9.47 8.88-21.31 12.88-38.77 12.88h-26.98c-9 0-12.72 0.15-18.79 0.44a119.41 119.41 0 0 0 1.18-19.53z m43.22 81.55c12.13 0 20-2.81 26.19-9.47 7.11-7.55 10.81-18.95 10.81-32.86 0-14.06-3.41-24.57-10.22-31.67-6.06-6.36-13.76-8.88-26.64-8.88H162v82.88z m128.61 17.46c-0.74-4.74-3.11-11.69-6.51-20l-21.31-50.76c-2.82-6.66-4.15-10.66-7.55-22.64 0.59 7.84 1.18 20 1.18 23.23V287c0 10.21 0.3 15.84 1.19 21.61h-20.72c0.88-5.92 1.18-11.69 1.18-21.61v-74.27a147.86 147.86 0 0 0-1.18-21.9h27.08a102.55 102.55 0 0 0 5.48 17.61l30 73.4 29.89-73.4a81.71 81.71 0 0 0 5.33-17.61h27.23a152.92 152.92 0 0 0-1.18 21.9V287c0 10.81 0.29 16.13 1.18 21.61h-20.68c0.89-6.07 1.19-11.4 1.19-21.61v-49.11c0.59-12.88 1-20.43 1.18-22.64a177.91 177.91 0 0 1-6.81 21.6L338.13 289a120.45 120.45 0 0 0-6.51 19.68zM503 278.29c0 8.73 0.14 12.73 1 19.24-10.51 5.77-15.83 8.14-23.68 10.21a87.42 87.42 0 0 1-21.75 2.81c-18.5 0-32.71-5.77-42-17-9-10.66-13.92-26.64-13.92-45 0-23.53 8.29-41.58 23.68-51.94 9.18-6.07 19.24-8.73 32.86-8.73s25.75 4.59 34 12.72c5.18 5 7.84 9.33 10.95 17.62l-20.28 5.47c-4.88-13.47-12-18.2-27.23-18.2a31.22 31.22 0 0 0-22.49 9c-7.4 7.69-10.95 18.64-10.95 33.74s3.4 26.79 10.06 34.63c6.07 7.1 14.06 10.21 25.75 10.21 10.06 0 17.61-1.92 25.16-6.66v-24.1h-8c-7.55 0-10.66 0.15-15.1 0.89v-19.1c5.33 0.74 8.59 0.89 17.76 0.89h7.7c6.81 0 11.1-0.15 17.46-0.59a124.19 124.19 0 0 0-1 18.35z" p-id="7661" fill="#d81e06"></path></svg>