<?xml version="1.0" standalone="no"?><!DOCTYPE svg PUBLIC "-//W3C//DTD SVG 1.1//EN" "http://www.w3.org/Graphics/SVG/1.1/DTD/svg11.dtd"><svg t="1641455983614" class="icon" viewBox="0 0 1049 1024" version="1.1" xmlns="http://www.w3.org/2000/svg" p-id="12002" xmlns:xlink="http://www.w3.org/1999/xlink" width="204.8828125" height="200"><defs><style type="text/css"></style></defs><path d="M1049.481178 892.814853v62.902253a68.282894 68.282894 0 0 1-68.282894 68.282894H68.282894A68.282894 68.282894 0 0 1 0 955.717106v-230.855113a28.824861 28.824861 0 0 1 28.824861-28.824861h73.535425a28.824861 28.824861 0 0 1 28.824861 28.824861v99.669966a68.282894 68.282894 0 0 0 68.282894 68.282894h650.545095a68.282894 68.282894 0 0 0 68.282894-68.282894v-99.669966a28.824861 28.824861 0 0 1 28.824862-28.824861h73.535424a28.824861 28.824861 0 0 1 28.824862 28.824861zM621.42558 515.503822l177.753312-177.714879a44.838673 44.838673 0 0 1 63.35064 0l24.084773 24.084773a44.838673 44.838673 0 0 1 0 63.35064L537.615694 774.222967a18.19169 18.19169 0 0 1-25.75021 0L162.854062 425.224356a44.838673 44.838673 0 0 1 0-63.35064l24.084773-24.084773a44.838673 44.838673 0 0 1 63.35064 0l177.766123 177.714879a18.217312 18.217312 0 0 0 31.092417-12.887916V47.400883a47.400883 47.400883 0 0 1 47.400883-47.400883h36.383381a47.400883 47.400883 0 0 1 47.400883 47.400883v455.215023a18.217312 18.217312 0 0 0 31.092418 12.887916zM590.333162 215.046277" fill="#BFBFBF" p-id="12003"></path></svg>