<?xml version="1.0" standalone="no"?><!DOCTYPE svg PUBLIC "-//W3C//DTD SVG 1.1//EN" "http://www.w3.org/Graphics/SVG/1.1/DTD/svg11.dtd"><svg t="1641458163204" class="icon" viewBox="0 0 1024 1024" version="1.1" xmlns="http://www.w3.org/2000/svg" p-id="3629" xmlns:xlink="http://www.w3.org/1999/xlink" width="200" height="200"><defs><style type="text/css"></style></defs><path d="M887.57333333 306.88V949.33333333c0 15.89333333-12.90666667 28.8-28.8 28.8h-665.6c-12.05333333 0-21.86666667-9.81333333-21.86666666-21.86666666V87.46666667c0-8.85333333 7.14666667-16.10666667 16.10666666-16.10666667h448.53333334c0.96 0 1.38666667 1.06666667 0.74666666 1.81333333-0.42666667 0.42666667-0.32 1.06666667 0.10666667 1.49333334l250.56 231.46666666c0.10666667 0.21333333 0.21333333 0.53333333 0.21333333 0.74666667z" fill="#270215" p-id="3630"></path><path d="M527.36 408.10666667h-488.53333333c-7.78666667 0-14.08-6.29333333-14.08-14.08V207.78666667c0-7.78666667 6.29333333-14.08 14.08-14.08h488.53333333c7.78666667 0 14.08 6.29333333 14.08 14.08v186.34666666c0 7.68-6.29333333 13.97333333-14.08 13.97333334zM635.94666667 291.41333333V71.46666667L887.46666667 306.45333333H650.98666667c-8.32 0-15.04-6.72-15.04-15.04z" fill="#EC348D" p-id="3631"></path><path d="M219.52 256h14.4v92.48h-14.4zM282.13333333 256.32v21.54666667l-3.94666666-0.42666667h-0.85333334l-0.53333333-0.10666667c-2.24-0.21333333-4.16-0.21333333-5.86666667-0.21333333-6.82666667 0-12.48 1.6-16.74666666 4.69333333-3.94666667 2.88-7.04 7.46666667-9.06666667 13.65333334-1.81333333 5.33333333-2.77333333 11.30666667-2.77333333 17.70666666 0 14.08 3.41333333 24.21333333 10.34666666 29.97333334l0.21333334 0.10666666c5.22666667 3.84 12.05333333 5.76 20.48 5.76 4.8 0 10.02666667-0.42666667 15.46666666-1.38666666h7.68v-91.2h-14.4z m0 36.05333333V333.86666667c-3.2 0.32-6.18666667 0.53333333-8.74666666 0.53333333-5.54666667 0-9.6-0.96-11.94666667-2.66666667-0.74666667-0.53333333-2.02666667-2.13333333-3.2-6.50666666-0.96-3.62666667-1.38666667-7.68-1.38666667-12.26666667s0.53333333-8.74666667 1.6-12.26666667c1.06666667-3.52 2.45333333-5.97333333 4.26666667-7.36 1.92-1.28 4.69333333-1.92 8.21333333-1.92 0.96 0 2.45333333 0.10666667 4.37333334 0.21333334l6.82666666 0.74666666z" fill="" p-id="3632"></path><path d="M405.76 545.81333333h40.85333333v262.61333334h-40.85333333zM597.97333333 546.45333333v61.86666667l-14.29333333-1.6h-0.85333333c-1.28 0-1.92-0.10666667-2.02666667-0.10666667l-0.64-0.10666666h-0.64c-6.72-0.53333333-12.69333333-0.74666667-17.92-0.74666667-20.58666667 0-37.44 4.37333333-50.02666667 13.01333333-11.84 8.21333333-21.12 21.12-27.41333333 38.50666667-5.54666667 15.14666667-8.42666667 32.10666667-8.42666667 50.56 0 40.10666667 10.45333333 68.8 31.14666667 85.22666667l0.42666667 0.32c15.57333333 10.66666667 36.37333333 16.10666667 61.76 16.10666666 14.72 0 30.72-1.28 47.46666666-3.84h22.08v-259.2h-40.64z m0 101.54666667v120.64c-10.56 1.06666667-20.16 1.70666667-28.69333333 1.70666667-17.38666667 0-30.18666667-2.77333333-37.86666667-8.10666667-2.77333333-2.02666667-6.82666667-7.04-10.34666666-19.09333333-2.88-10.34666667-4.26666667-22.18666667-4.26666667-35.30666667 0-13.22666667 1.70666667-25.17333333 4.90666667-35.41333333 3.2-10.24 7.78666667-17.49333333 13.54666666-21.65333334 6.29333333-3.84 15.14666667-5.76 26.34666667-5.76 2.98666667 0 7.57333333 0.21333333 13.65333333 0.64l22.72 2.34666667z" fill="#EC348D" p-id="3633"></path></svg>