<?xml version="1.0" standalone="no"?><!DOCTYPE svg PUBLIC "-//W3C//DTD SVG 1.1//EN" "http://www.w3.org/Graphics/SVG/1.1/DTD/svg11.dtd"><svg t="1641457858135" class="icon" viewBox="0 0 1024 1024" version="1.1" xmlns="http://www.w3.org/2000/svg" p-id="1522" xmlns:xlink="http://www.w3.org/1999/xlink" width="200" height="200"><defs><style type="text/css"></style></defs><path d="M892.1 307.3v634.6c0 15.7-12.7 28.4-28.4 28.4H206.1c-12 0-21.6-9.7-21.6-21.6V90.5c0-8.8 7.1-15.9 15.9-15.9h443.1c0.9 0 1.4 1.1 0.8 1.8-0.4 0.4-0.4 1.1 0.1 1.5l247.5 228.6c0.1 0.2 0.2 0.5 0.2 0.8z" fill="#F4F4F4" p-id="1523"></path><path d="M643.7 291.9V74.7l248.5 232.2H658.5c-8.2-0.1-14.8-6.7-14.8-15zM420.3 365.9H202c-58.4 0-105.7-47.3-105.7-105.7 0-58.4 47.3-105.7 105.7-105.7h218.2c58.4 0 105.7 47.3 105.7 105.7 0.1 58.4-47.2 105.7-105.6 105.7zM324.2 814.1c-3.5 0-7-1.3-9.7-3.9-5.7-5.4-5.9-14.3-0.6-20L424 673.5c14.2-15.1 38.5-14.2 51.6 1.9l90.2 111.1c4.9 6.1 4 15-2.1 19.9-6.1 4.9-15 4-19.9-2.1l-85.6-105.5c-4.7-5.8-13.4-6.1-18.5-0.7L334.5 809.7c-2.8 2.9-6.5 4.4-10.3 4.4zM766.8 814.1c-4 0-7.9-1.7-10.7-4.9L606.6 636.4c-4.1-4.7-11.4-4.8-15.6-0.2L535 698c-5.4 6-14.7 6.3-20.5 0.5-5.4-5.4-5.4-14.2-0.2-19.9l52.9-58.4c17.1-18.9 46.9-18.5 63.5 0.7l146.5 169.4c5 5.8 4.9 14.7-0.7 19.9-2.8 2.6-6.2 3.9-9.7 3.9zM436.1 580.7c-40 0-72.6-32.6-72.6-72.6s32.6-72.6 72.6-72.6 72.6 32.6 72.6 72.6-32.6 72.6-72.6 72.6z m0-115.2c-23.5 0-42.6 19.1-42.6 42.6s19.1 42.6 42.6 42.6 42.6-19.1 42.6-42.6-19.1-42.6-42.6-42.6z" fill="#00B2B2" p-id="1524"></path><path d="M226.9 271.6c0 19.6-8.1 19.6-10.8 19.6-2.8 0-5.2-0.7-7-2l-3.6-2.6V303l1.3 0.6c2.5 1.1 5.6 1.7 9.3 1.7 8 0 14.4-3.1 19.1-9.1 4.5-5.9 6.8-14.1 6.8-24.6v-55h-15.2v55zM318.9 223.6c-5.3-4.7-12.8-7-22.3-7h-25.8v87.3H286V273h8.4c9.2 0.3 17-2.3 23.2-7.7 6.3-5.5 9.4-12.7 9.4-21.5 0-8.7-2.7-15.5-8.1-20.2z m-32.9 6.9h8.6c14.9 0 16.6 7.8 16.6 13.7 0 4.8-1.4 8.4-4.3 10.9-2.9 2.6-7.4 3.9-13.4 3.9H286v-28.5zM383.5 255.7v14h18v18.7c-3.8 1.8-8.5 2.7-13.8 2.7-8.6 0-15.2-2.6-20.1-7.9-4.9-5.3-7.5-12.9-7.5-22.7 0-9.4 2.7-17.1 8.1-22.8 5.4-5.7 12.2-8.5 20.6-8.5 8.7 0 16.2 2 22.5 5.9l3.5 2.2v-17.1l-1.3-0.6c-6.5-3-14.4-4.5-23.7-4.5-13.2 0-24.2 4.4-32.7 13-8.5 8.6-12.8 19.8-12.8 33.1 0 13.2 3.9 23.9 11.6 31.9 7.7 8 18 12 30.6 12 10.8 0 20.6-2.5 29.1-7.4l1.2-0.7v-41.5h-33.3z" fill="#FFFFFF" p-id="1525"></path></svg>