<?xml version="1.0" standalone="no"?><!DOCTYPE svg PUBLIC "-//W3C//DTD SVG 1.1//EN" "http://www.w3.org/Graphics/SVG/1.1/DTD/svg11.dtd"><svg t="1641458064498" class="icon" viewBox="0 0 1024 1024" version="1.1" xmlns="http://www.w3.org/2000/svg" p-id="2879" xmlns:xlink="http://www.w3.org/1999/xlink" width="200" height="200"><defs><style type="text/css"></style></defs><path d="M861.229614 305.608985V904.515107c0 14.81655-12.029628 26.846178-26.846178 26.846177H213.887484c-11.2888 0-20.425673-9.136873-20.425673-20.425672V101.034761c0-8.254935 6.702725-14.95766 14.957661-14.95766h418.14421c0.84666 0 1.305268 1.023048 0.740828 1.658042-0.352775 0.388053-0.352775 1.023048 0.070555 1.375823l233.572329 215.757191c0.176388 0.211665 0.28222 0.458608 0.28222 0.740828z" fill="#13222D" p-id="2880"></path><path d="M533.924966 399.94102H61.594515c-2.575258 0-4.65663-2.081373-4.65663-4.65663V204.715334c0-2.575258 2.081373-4.65663 4.65663-4.65663h472.330451c2.575258 0 4.65663 2.081373 4.65663 4.65663v190.569056c-0.035278 2.575258-2.11665 4.65663-4.65663 4.65663zM626.634237 291.109932V86.077101L861.123781 305.185655h-220.449099c-7.76105 0-14.040445-6.314673-14.040445-14.075723zM552.904262 617.920695c21.131223-18.379578 55.138733-21.907328 71.331105-21.907328h10.054088l-0.352775 44.837703s-12.029628 0.105833-20.284563 1.587487c-8.32549 1.516933-19.085128 4.268578-25.928963 11.500465 0 0-0.493885 17.815138-0.493885 36.935543V769.755056H553.151204l-0.246942-151.834361zM536.253281 769.755056H415.921728v-230.573742h43.708823V729.538705h76.658008v40.216351z" fill="#ADD0EA" p-id="2881"></path><path d="M304.444827 286.947187c8.113825-7.0555 21.1665-8.396045 27.37534-8.396045h3.845248l-0.14111 17.21542s-4.621353 0.035278-7.796328 0.599718c-3.210253 0.56444-7.33772 1.658043-9.948255 4.409687 0 0-0.176388 6.843835-0.176387 14.181555v30.268096h-13.087953l-0.070555-58.278431zM298.0596 345.225618h-46.213526V256.714369h16.79209v73.094981h29.421436v15.416268z" fill="#13222D" p-id="2882"></path></svg>