<?xml version="1.0" standalone="no"?><!DOCTYPE svg PUBLIC "-//W3C//DTD SVG 1.1//EN" "http://www.w3.org/Graphics/SVG/1.1/DTD/svg11.dtd"><svg t="1641459045123" class="icon" viewBox="0 0 1024 1024" version="1.1" xmlns="http://www.w3.org/2000/svg" p-id="10707" xmlns:xlink="http://www.w3.org/1999/xlink" width="200" height="200"><defs><style type="text/css"></style></defs><path d="M503.9 536.8l-430.1-190c-12-8.4-12-28.7 1.2-35.8l428.9-185.2c4.8-2.4 10.8-2.4 15.5 0l429 185.2c13.1 7.2 14.3 27.5 1.2 35.8l-427.7 190c-6 2.4-10.8 3.6-18 0z m0 0" fill="#d81e06" p-id="10708"></path><path d="M949.6 491.4l-121.9-52.6L521.8 575c-6 2.4-10.8 3.6-19.1 0L196.9 438.8 75 491.4c-13.1 7.2-14.3 27.5-1.2 35.8l428.9 190c8.4 3.6 12 2.4 19.1 0l428.9-190c13.2-8.3 12-28.6-1.1-35.8z m0 0" fill="#d81e06" p-id="10709"></path><path d="M949.6 673l-120.7-52.6-307 136.2c-6 2.4-10.8 3.6-19.1 0L196.9 620.4 75 673c-13.1 7.2-14.3 27.5-1.2 35.8l428.9 190c8.4 3.6 12 2.4 19.1 0l428.9-190c13.2-8.3 12-28.6-1.1-35.8z m0 0" fill="#d81e06" p-id="10710"></path></svg>