<?xml version="1.0" standalone="no"?><!DOCTYPE svg PUBLIC "-//W3C//DTD SVG 1.1//EN" "http://www.w3.org/Graphics/SVG/1.1/DTD/svg11.dtd"><svg t="1641458072893" class="icon" viewBox="0 0 1024 1024" version="1.1" xmlns="http://www.w3.org/2000/svg" p-id="3028" xmlns:xlink="http://www.w3.org/1999/xlink" width="200" height="200"><defs><style type="text/css"></style></defs><path d="M922.2 291.5v634.6c0 15.7-12.7 28.4-28.4 28.4H236.3c-12 0-21.6-9.7-21.6-21.6V74.7c0-8.8 7.1-15.9 15.9-15.9h443.1c0.9 0 1.4 1.1 0.8 1.8-0.4 0.4-0.4 1.1 0.1 1.5l247.5 228.6c0 0.2 0.1 0.5 0.1 0.8z" fill="#F4F4F4" p-id="3029"></path><path d="M673.8 276.2V58.9l248.5 232.2H688.7c-8.3 0-14.9-6.7-14.9-14.9zM450.4 350.2H232.1c-58.4 0-105.7-47.3-105.7-105.7 0-58.4 47.3-105.7 105.7-105.7h218.2c58.4 0 105.7 47.3 105.7 105.7 0.1 58.3-47.2 105.7-105.6 105.7z" fill="#6300CC" p-id="3030"></path><path d="M265.3 211.5c-4.9-4.3-11.8-6.5-20.6-6.5h-23.8v80.4h14.3V257h7.5c8.5 0.3 15.7-2.1 21.4-7.1 5.8-5 8.7-11.7 8.7-19.8 0-8-2.5-14.3-7.5-18.6z m-30.1 6.6h7.8c13.5 0 15.1 7.1 15.1 12.4 0 4.4-1.3 7.6-3.9 9.9-2.7 2.3-6.8 3.5-12.2 3.5h-6.8v-25.8zM342.6 259.4v2.6l-36.5-57h-15.8v80.4h14.2v-55.6-2l37.2 57.6h15.1V205h-14.2v54.4zM411.1 240.9v13.2h16.5V271c-3.5 1.6-7.7 2.5-12.5 2.5-7.8 0-13.8-2.4-18.4-7.2-4.5-4.8-6.8-11.8-6.8-20.7 0-8.6 2.5-15.6 7.4-20.8 5-5.2 11.1-7.8 18.8-7.8 7.9 0 14.8 1.8 20.5 5.4l3.4 2.2v-16.1l-1.3-0.6c-6-2.7-13.3-4.1-21.8-4.1-12.2 0-22.3 4-30.1 12-7.8 7.9-11.8 18.2-11.8 30.5 0 12.1 3.6 22 10.7 29.4 7.1 7.4 16.6 11.1 28.2 11.1 9.9 0 18.9-2.3 26.8-6.8l1.1-0.6V241h-30.7z" fill="#FFFFFF" p-id="3031"></path><path d="M717.2 693.5L601 577.5h74.4c4.8 0 9.1-3.4 11-8.5 1.9-5.2 1-11.2-2.4-15.3L577 422.3l-0.2-0.2c-0.1-0.1-0.1-0.2-0.2-0.2-0.1-0.1-0.2-0.2-0.2-0.3l-0.5-0.5c-0.1-0.1-0.3-0.3-0.5-0.4-0.2-0.1-0.3-0.3-0.5-0.4-0.2-0.1-0.3-0.2-0.5-0.4-0.2-0.1-0.4-0.2-0.5-0.3-0.2-0.1-0.3-0.2-0.5-0.3-0.2-0.1-0.4-0.2-0.5-0.3-0.2-0.1-0.4-0.2-0.6-0.2-0.2-0.1-0.4-0.1-0.5-0.2-0.2-0.1-0.4-0.1-0.6-0.2-0.2-0.1-0.4-0.1-0.5-0.1-0.2 0-0.4-0.1-0.6-0.1-0.2 0-0.4-0.1-0.6-0.1h-2.4c-0.2 0-0.4 0-0.6 0.1-0.2 0-0.4 0.1-0.6 0.1-0.2 0-0.4 0.1-0.5 0.1-0.2 0.1-0.4 0.1-0.6 0.2-0.2 0.1-0.4 0.1-0.5 0.2-0.2 0.1-0.4 0.2-0.6 0.2-0.2 0.1-0.4 0.2-0.5 0.3-0.2 0.1-0.3 0.2-0.5 0.3-0.2 0.1-0.4 0.2-0.5 0.4-0.2 0.1-0.3 0.2-0.5 0.4-0.2 0.1-0.3 0.3-0.5 0.4-0.2 0.1-0.3 0.3-0.5 0.4l-0.5 0.5c-0.1 0.1-0.2 0.2-0.2 0.3-0.1 0.1-0.1 0.2-0.2 0.2l-0.2 0.2-107 131.4c-3.3 4.1-4.2 10.1-2.4 15.3 1.9 5.2 6.2 8.5 11 8.5h74.4l-116.2 116c-3.8 3.8-5.2 10-3.5 15.6 1.7 5.5 6.2 9.2 11.3 9.2h129v62.2c0 7.8 5.4 14.1 12 14.1s12-6.3 12-14.1v-62.2h129c5 0 9.5-3.7 11.3-9.2 1.9-5.7 0.5-11.9-3.3-15.7zM489.5 549.4l78.9-96.9 78.9 96.9H489.5z m78.9 140.7H460l108.4-108.2 108.4 108.2H568.4z" fill="#6300CC" p-id="3032"></path></svg>