<?xml version="1.0" standalone="no"?><!DOCTYPE svg PUBLIC "-//W3C//DTD SVG 1.1//EN" "http://www.w3.org/Graphics/SVG/1.1/DTD/svg11.dtd"><svg t="1641458113711" class="icon" viewBox="0 0 1024 1024" version="1.1" xmlns="http://www.w3.org/2000/svg" p-id="3479" xmlns:xlink="http://www.w3.org/1999/xlink" width="200" height="200"><defs><style type="text/css"></style></defs><path d="M881.4 260.4V895c0 15.7-12.7 28.4-28.4 28.4H195.5c-12 0-21.6-9.7-21.6-21.6V43.6c0-8.8 7.1-15.9 15.9-15.9h443.1c0.9 0 1.4 1.1 0.8 1.8-0.4 0.4-0.4 1.1 0.1 1.5l247.5 228.6c0 0.2 0.1 0.5 0.1 0.8z" fill="#F4F4F4" p-id="3480"></path><path d="M633 245V27.7l248.5 232.2H647.9c-8.2 0-14.9-6.7-14.9-14.9zM409.6 319H191.4C133 319 85.6 271.7 85.6 213.3c0-58.4 47.3-105.7 105.7-105.7h218.2c58.4 0 105.7 47.3 105.7 105.7 0.1 58.4-47.2 105.7-105.6 105.7zM651.9 561.8C636.5 419.4 516 427.5 516 427.5c-97.6 1.3-129.1 84.4-137.4 115-0.7 2.4 2.5 4 4 2 43.3-55.7 112-61.1 115.8-60.4 0.1 0 0.2 0 0.2 0.1 75.5-7.6 66.3 63.6 66.3 63.6s-101.9-1.1-101.9-0.6c-2.4-17.8 4.4-31.3 9.4-38.8 1.2-1.8-0.8-4.1-2.7-3.1-33 16.6-48.8 41.9-56.1 65.2-2.6 10-4 20.4-4 31.2 0 67.4 54.5 122.1 121.8 122.4h0.6c2.2 0 4.4-0.1 6.6-0.2 36.5-1.6 68.3-14.3 78-18.5V643C469 705.9 461 604.5 461 604.5h190.9s0.2-13.5 0.3-25.3c0.1-9.3 0-17.8-0.3-17.4z" fill="#0078D7" p-id="3481"></path><path d="M619.2 642c0.1 0 0.2-0.1 0.3-0.1-0.1-0.1-0.2-0.1-0.3 0.1z" fill="#0078D7" p-id="3482"></path><path d="M241.4 180.6l-16.3 64.3h-14.4L200.3 203c-0.6-2.3-0.9-4.6-1-7.1h-0.2c-0.3 2.9-0.6 5.2-1.1 7.1l-10.6 41.9h-15l-16.3-64.3h14.3l9.1 43.6c0.4 1.9 0.7 4.3 0.8 7.2h0.3c0.1-2.3 0.5-4.7 1.2-7.4l11.3-43.4H207l10.3 43.9c0.4 1.7 0.7 4 1 6.8h0.2c0.1-2.4 0.4-4.8 0.9-7.1l8.9-43.7h13.1zM334.6 180.6l-16.3 64.3h-14.4L293.5 203c-0.6-2.3-0.9-4.6-1-7.1h-0.2c-0.3 2.9-0.6 5.2-1.1 7.1l-10.6 41.9h-15l-16.3-64.3h14.3l9.1 43.6c0.4 1.9 0.7 4.3 0.8 7.2h0.3c0.1-2.3 0.5-4.7 1.2-7.4l11.3-43.4h13.8l10.3 43.9c0.4 1.7 0.7 4 1 6.8h0.2c0.1-2.4 0.4-4.8 0.9-7.1l8.9-43.7h13.2zM427.8 180.6l-16.3 64.3h-14.4L386.7 203c-0.6-2.3-0.9-4.6-1-7.1h-0.2c-0.3 2.9-0.6 5.2-1.1 7.1l-10.6 41.9h-15l-16.3-64.3h14.3l9.1 43.6c0.4 1.9 0.7 4.3 0.8 7.2h0.3c0.1-2.3 0.5-4.7 1.2-7.4l11.3-43.4h13.8l10.3 43.9c0.4 1.7 0.7 4 1 6.8h0.2c0.1-2.4 0.4-4.8 0.9-7.1l8.9-43.7h13.2zM433.7 238.8c0-2.1 0.7-3.8 2.2-5.1 1.5-1.3 3.3-2 5.4-2 2.1 0 3.9 0.7 5.3 2 1.4 1.4 2.2 3 2.2 5.1 0 2.1-0.7 3.9-2.2 5.2-1.4 1.3-3.3 2-5.5 2-2 0-3.8-0.7-5.3-2-1.4-1.4-2.1-3.1-2.1-5.2z" fill="#FFFFFF" p-id="3483"></path></svg>